<svg xmlns="http://www.w3.org/2000/svg" width="40" height="40" viewBox="0 0 48 48"><!-- Icon from Arcticons by Donnnno - https://creativecommons.org/licenses/by-sa/4.0/ --><circle cx="32.5" cy="11" r="2.5" fill="none" stroke="#ff956d" stroke-linecap="round" stroke-linejoin="round" stroke-width="2"/><circle cx="15.5" cy="11" r="2.5" fill="none" stroke="#ff956d" stroke-linecap="round" stroke-linejoin="round" stroke-width="2"/><path fill="none" stroke="#ff956d" stroke-linecap="round" stroke-linejoin="round" stroke-width="3" d="M13.5 35.299V20.701m8.95-.001v5.252a3 3 0 0 1-3 3H13.5M29.693 20.7H34.5v10.283h-4.807c-1.656 0-3-1.344-3-3v-4.282c0-1.656 1.344-3 3-3M34.5 35.299v-4.316"/><path fill="none" stroke="#ff956d" stroke-linecap="round" stroke-linejoin="round" stroke-width="3" d="M38.5 5.5h-29c-2.2 0-4 1.8-4 4v29c0 2.2 1.8 4 4 4h29c2.2 0 4-1.8 4-4v-29c0-2.2-1.8-4-4-4"/></svg> 
